<?xml version="1.0" encoding="UTF-8" standalone="no"?>
<!-- Created with Inkscape (http://www.inkscape.org/) -->

<svg
   width="100mm"
   height="100mm"
   viewBox="0 0 100 100"
   version="1.1"
   id="svg1"
   inkscape:version="1.3 (1:1.3+202307231459+0e150ed6c4)"
   sodipodi:docname="devops.svg"
   xml:space="preserve"
   xmlns:inkscape="http://www.inkscape.org/namespaces/inkscape"
   xmlns:sodipodi="http://sodipodi.sourceforge.net/DTD/sodipodi-0.dtd"
   xmlns="http://www.w3.org/2000/svg"
   xmlns:svg="http://www.w3.org/2000/svg"><sodipodi:namedview
     id="namedview1"
     pagecolor="#ffffff"
     bordercolor="#000000"
     borderopacity="0.25"
     inkscape:showpageshadow="2"
     inkscape:pageopacity="0.0"
     inkscape:pagecheckerboard="0"
     inkscape:deskcolor="#d1d1d1"
     inkscape:document-units="mm"
     inkscape:zoom="1.4142136"
     inkscape:cx="77.781744"
     inkscape:cy="142.12846"
     inkscape:window-width="1920"
     inkscape:window-height="954"
     inkscape:window-x="0"
     inkscape:window-y="32"
     inkscape:window-maximized="1"
     inkscape:current-layer="layer1"
     showgrid="true"><inkscape:grid
       id="grid1"
       units="mm"
       originx="0"
       originy="0"
       spacingx="0.99999999"
       spacingy="0.99999999"
       empcolor="#0099e5"
       empopacity="0.30196078"
       color="#0099e5"
       opacity="0.14901961"
       empspacing="5"
       dotted="false"
       gridanglex="30"
       gridanglez="30"
       visible="true" /></sodipodi:namedview><defs
     id="defs1"><linearGradient
       id="swatch16"
       inkscape:swatch="solid"><stop
         style="stop-color:#000000;stop-opacity:1;"
         offset="0"
         id="stop16" /></linearGradient><rect
       x="1.4897461"
       y="147.48608"
       width="233.93622"
       height="42.238819"
       id="rect11" /><rect
       x="1.4897461"
       y="151.69652"
       width="232.01929"
       height="42.059883"
       id="rect10" /><rect
       x="1.4897461"
       y="151.49579"
       width="236.34241"
       height="41.412498"
       id="rect23" /><rect
       x="25.156113"
       y="167.4727"
       width="146.89229"
       height="15.163483"
       id="rect22" /><rect
       x="19.506866"
       y="165.50151"
       width="162.8764"
       height="19.015625"
       id="rect21" /><rect
       x="24.787964"
       y="170.27888"
       width="102.45899"
       height="13.476929"
       id="rect20" /><rect
       x="17.333389"
       y="168.24014"
       width="113.38583"
       height="20.100723"
       id="rect19" /><rect
       x="23.740204"
       y="147.40056"
       width="155.38734"
       height="25.081207"
       id="rect18" /><rect
       x="17.523188"
       y="173.89505"
       width="113.19603"
       height="14.004655"
       id="rect9" /><rect
       x="30.81296"
       y="150.32947"
       width="99.906258"
       height="23.758804"
       id="rect4" /></defs><g
     inkscape:label="Слой 1"
     inkscape:groupmode="layer"
     id="layer1"><rect
       style="display:none;fill:#b0e363;fill-opacity:1;stroke-width:1;stroke-linecap:round;stroke-linejoin:round;stroke-miterlimit:2"
       id="rect1"
       width="100"
       height="100"
       x="0"
       y="0"
       inkscape:label="Background" /><g
       id="g91"
       inkscape:label="DevOps"
       transform="matrix(0.81366175,0,0,0.81366175,-123.97106,-145.49918)"><path
         id="path90"
         style="fill:#2e384d;fill-opacity:1;stroke:none;stroke-width:0.264583;stroke-dasharray:none;stroke-opacity:1"
         d="m 176.21005,224.49248 c 30.1948,0 47.64544,42.10514 72.59397,42.10514 14.53988,0 26.32679,-11.78691 26.32679,-26.32679 0,8.71414 -10.61796,15.77834 -23.71585,15.77834 -30.16159,0 -47.64637,-42.10513 -72.59397,-42.10513 -14.53988,0 -26.32679,11.78691 -26.32679,26.32679 0,-8.71414 10.61796,-15.77835 23.71585,-15.77835 z"
         sodipodi:nodetypes="sscsscs"
         inkscape:label="Part2" /><path
         id="path91"
         style="fill:#2e384d;fill-opacity:1;stroke:none;stroke-width:0.264583;stroke-dasharray:none;stroke-opacity:1"
         d="m 176.21005,256.04917 c 30.15363,0 47.65256,-42.10513 72.59397,-42.10513 14.53988,0 26.32679,11.78691 26.32679,26.32679 0,-8.71414 -10.61796,-15.77835 -23.71585,-15.77835 -30.16996,0 -47.64818,42.10514 -72.59397,42.10514 -14.53988,0 -26.32679,-11.78691 -26.32679,-26.32679 0,8.71414 10.61796,15.77834 23.71585,15.77834 z"
         sodipodi:nodetypes="sscsscs"
         inkscape:label="Part1" /></g></g></svg>
