<?xml version="1.0" encoding="UTF-8" standalone="no"?>
<svg
   width="600"
   height="600"
   viewBox="0 0 600 600"
   fill="none"
   version="1.1"
   id="svg4"
   sodipodi:docname="VladR_Logo.svg"
   inkscape:version="1.4.3 (0d15f75042, 2025-12-25)"
   xmlns:inkscape="http://www.inkscape.org/namespaces/inkscape"
   xmlns:sodipodi="http://sodipodi.sourceforge.net/DTD/sodipodi-0.dtd"
   xmlns="http://www.w3.org/2000/svg"
   xmlns:svg="http://www.w3.org/2000/svg">
  <sodipodi:namedview
     id="namedview4"
     pagecolor="#ffffff"
     bordercolor="#000000"
     borderopacity="0.25"
     inkscape:showpageshadow="2"
     inkscape:pageopacity="0.0"
     inkscape:pagecheckerboard="0"
     inkscape:deskcolor="#d1d1d1"
     inkscape:zoom="0.42838886"
     inkscape:cx="73.531324"
     inkscape:cy="12.838803"
     inkscape:window-width="1920"
     inkscape:window-height="952"
     inkscape:window-x="0"
     inkscape:window-y="0"
     inkscape:window-maximized="1"
     inkscape:current-layer="svg4" />
  <rect
     width="600"
     height="600"
     rx="96"
     fill="#121504"
     id="rect1"
     x="0"
     y="0"
     style="display:none" />
  <path
     d="M111.053 100C104.948 100 99.936 104.966 100.602 111.031C106.092 161.069 148.5 200 200 200H331.002H400H488.947C495.052 200 500.064 195.034 499.398 188.969C493.908 138.931 451.5 100 400 100H200H111.053ZM212.723 220C205.696 220 201.063 225.624 203.324 232.271C216.939 272.288 254.684 299.955 297.875 300H347.875H402.238C445.387 299.906 483.074 272.249 496.676 232.271C498.937 225.624 494.304 220 487.277 220H402.238H347.875H212.723ZM312.322 320C306.096 320 301.522 325.029 302.488 331.18C317.13 424.359 395.23 494.804 489.492 499.725C495.29 500.027 500 495.294 500 489.488V330C500 327.348 498.946 324.804 497.071 322.929C495.196 321.054 492.652 320 490 320H312.322Z"
     fill="url(#paint0_linear_14_2)"
     id="path1" />
  <defs
     id="defs4">
    <linearGradient
       id="paint0_linear_14_2"
       x1="300.271"
       y1="100"
       x2="300.271"
       y2="499.738"
       gradientUnits="userSpaceOnUse">
      <stop
         stop-color="#B9D42F"
         id="stop1" />
      <stop
         offset="0.33"
         stop-color="#F3CE47"
         id="stop2" />
      <stop
         offset="0.66"
         stop-color="#FFC870"
         id="stop3" />
      <stop
         offset="1"
         stop-color="#FFC89E"
         id="stop4" />
    </linearGradient>
  </defs>
</svg>
